<?xml version="1.0" standalone="no"?>
<!DOCTYPE svg PUBLIC "-//W3C//DTD SVG 20010904//EN"
 "http://www.w3.org/TR/2001/REC-SVG-20010904/DTD/svg10.dtd">
<svg version="1.0" xmlns="http://www.w3.org/2000/svg"
 width="500.000000pt" height="500.000000pt" viewBox="0 0 500.000000 500.000000"
 preserveAspectRatio="xMidYMid meet">
<metadata>
Created by potrace 1.11, written by Peter Selinger 2001-2013
</metadata>
<g transform="translate(0.000000,500.000000) scale(0.100000,-0.100000)"
fill="#000000" stroke="none">
<path d="M1182 4279 l3 -712 230 -140 c127 -77 244 -147 260 -157 17 -9 138
-83 270 -163 132 -80 293 -177 358 -216 l117 -70 0 704 0 704 -152 94 c-197
121 -595 365 -630 386 -22 13 -177 108 -387 238 -20 12 -44 27 -54 33 -16 10
-17 -24 -15 -701z"/>
<path d="M3740 4936 c-47 -29 -283 -174 -525 -321 -242 -147 -478 -291 -525
-320 l-85 -52 -3 -712 -2 -711 37 23 c21 13 175 109 343 212 168 103 330 204
360 223 30 19 69 43 85 52 70 40 381 234 393 244 9 9 12 160 10 713 l-3 702
-85 -53z"/>
<path d="M4768 3907 c-37 -23 -136 -84 -220 -135 -84 -51 -247 -151 -363 -221
-115 -71 -271 -166 -345 -211 -74 -45 -155 -94 -180 -109 -25 -16 -110 -68
-190 -116 -80 -48 -194 -118 -255 -155 -60 -38 -204 -125 -320 -195 -115 -70
-229 -139 -252 -154 l-42 -26 -1 -1292 0 -1292 48 29 c26 16 63 38 82 50 19
11 67 40 105 64 39 25 140 87 225 140 85 52 256 158 380 235 124 77 254 157
289 178 35 21 75 45 90 54 92 58 831 515 853 528 14 9 58 36 97 60 l71 43 0
1284 c0 706 -1 1284 -2 1283 -2 0 -33 -19 -70 -42z"/>
<path d="M170 2652 l0 -1277 467 -285 c257 -157 512 -313 567 -347 56 -35 117
-72 136 -83 19 -11 49 -29 65 -40 17 -11 37 -23 45 -27 8 -4 67 -39 130 -78
117 -73 216 -134 505 -310 88 -53 198 -121 245 -151 l85 -53 3 1277 c1 702 0
1282 -2 1288 -3 8 -294 190 -407 254 -15 8 -194 116 -398 240 -204 124 -379
230 -388 235 -10 6 -40 24 -68 40 -27 17 -57 35 -67 40 -10 6 -84 50 -165 100
-81 49 -157 95 -168 101 -11 6 -83 50 -160 97 -134 82 -308 187 -387 234 l-38
22 0 -1277z"/>
</g>
</svg>
